<?xml version="1.0" encoding="utf-8"?>
<!-- Generator: Adobe Illustrator 24.2.1, SVG Export Plug-In . SVG Version: 6.00 Build 0)  -->
<svg version="1.1" id="Layer_1" xmlns="http://www.w3.org/2000/svg" xmlns:xlink="http://www.w3.org/1999/xlink" x="0px" y="0px"
	 viewBox="0 0 232.2 178.1" style="enable-background:new 0 0 232.2 178.1;" xml:space="preserve">
<style type="text/css">
	.st0{fill:#FFFFFF;}
</style>
<g>
	<path d="M73.8,146.6c0.8-8.1,1.4-16.2,2.3-24.3c1.9-17.7,4.5-35.3,9.6-52.4c2.7-9.1,6-18,11.8-25.7c3.5-4.6,7.7-8.4,13.6-9.6
		c8.2-1.7,15,0.9,20.6,6.9c6.5,6.9,10.2,15.4,13.3,24.2c5.8,16.8,9,34.2,11.4,51.7c1.2,8.8,2.1,17.7,3.1,26.5c0.1,1,0,1.9,0,3
		c-2,0.7-2.9,0.2-3.1-2c-2.5-21-5.2-42.1-10.8-62.5c-2.3-8.4-5.5-16.5-8.5-24.6c-1-2.7-2.8-5.1-4.3-7.5
		c-7.2-11.6-20.5-10.2-28.3-4.4c-6.1,4.6-9.8,11-12.8,17.8c-5.8,13.3-8.9,27.3-10.8,41.6c-1.7,13.2-2.8,26.4-4.1,39.6
		C76.7,146.8,76.2,147.6,73.8,146.6z"/>
	<path d="M79.6,136.2c24.7-2.9,49.2-2.7,74.1-1c-0.5,2-1,3.6-1.4,5.2c-7-0.8-13.7-1.7-20.4-2.3c-15.5-1.3-30.9-0.4-46.2,2.3
		C81.2,141.1,81.2,141.2,79.6,136.2z"/>
	<path d="M127,119.1c0.3-12.7,0.6-25.4,0.9-38.3c-7,0-14.2,0-22,0c1.8,13.7,2,27.2,0.6,39.8c-1.4-14-2.9-28.7-4.3-43.8
		c9.7,0,19.9,0,29.9,0c-1.5,14-3,28.1-4.6,42.2C127.4,119.1,127.2,119.1,127,119.1z"/>
	<path d="M95.1,19.7c-0.3-2.9-0.5-5.7-1-8.4c-0.2-1.2-0.8-2.6-1.7-3.4c-0.8-0.7-2.4-0.8-3.5-0.6c-0.5,0.1-1,1.8-0.9,2.7
		c0.3,2.3,1.1,4.5,1.6,6.7c1.2,4.5,1.2,4.5-3.7,5.6c-0.4-2.4-0.8-4.9-1.3-7.3c-0.2-1.2-0.5-2.5-1.2-3.3c-0.8-0.9-2.5-2-3.2-1.7
		c-1.1,0.5-2.4,2.3-2.2,3.2c0.7,3,2,5.8,3.1,8.6c0.2,0.5,0.6,1,0.9,1.5c-3.7,2.8-4.4,2.7-6.3-1.4c-1.5-3.4-3.1-6.7-4.2-10.2
		c-0.3-0.9,0.4-2.7,1.3-3.3c1-0.7,2.6-0.5,3.9-0.6c3-0.6,5.8-1.2,8.7-1.9c1-0.3,2-0.8,2.9-1.4c4.5-2.8,8.6-1.4,10,3.6
		c0.6,2.1,1,4.3,1.2,6.5C100,19.1,99.9,19.2,95.1,19.7z"/>
	<path d="M121.7,17c0.4-2.9,0.9-5.5,1.2-8.2c0.1-1.1,0.1-2.4-0.5-3.2c-0.7-1-2-1.9-3.2-2.1c-0.5-0.1-1.8,1.6-1.9,2.7
		c-0.3,2.5-0.1,5-0.2,7.5c0,1.1-0.2,2.2-0.3,3.5c-1.5,0.1-2.9,0.2-4.7,0.4c0.2-2,0.4-3.8,0.5-5.7c0.1-1.7,0.1-3.4-0.1-5.1
		c-0.2-1.7-1.1-3.5-3-2.9c-1.2,0.4-2.8,2-2.8,3.1c-0.1,3.4,0.5,6.9,0.9,10.5c-3.7,1.5-4.4,1.2-5.1-3c-0.6-3.6-1.3-7.3-1.5-11
		c-0.1-1,1.1-2.6,2-3c1.3-0.5,3.4-1.3,3.9,1.5c2.9-1.4,5.7-2.5,8.8-0.8c0.7,0.4,2.1-0.2,3.1-0.5c5.1-1.6,8.6,0.8,8.7,6.1
		c0,2.3-0.2,4.6-0.5,6.9C126.6,17.8,126.1,18.1,121.7,17z"/>
	<path d="M199.1,145.1c0-1.1,0-2.2,0-3.4c0.2-14.4,0.5-28.8-2.5-43c-1.1-5.2-2.8-10.5-5.4-15.1c-5.1-9.2-15.3-9.4-21-0.4
		c-3,4.8-5.2,10.1-7.7,15.2c-0.5,1-0.9,2-1.6,2.8c2.9-9.2,5.8-18.5,13-25.4c5.8-5.7,13.4-4.7,17.9,2.2c4,6.2,5.5,13.2,6.6,20.4
		c2.3,14.8,2.4,29.7,2.3,44.6c0,0.8-0.3,1.6-0.4,2.4C199.9,145.2,199.5,145.1,199.1,145.1z"/>
	<path d="M34.1,144.9c-0.2-0.6-0.5-1.1-0.5-1.7c-0.2-17.4-0.4-34.8,3.6-51.9c1.1-4.6,2.7-9.2,5.1-13.3c4.5-7.7,12.6-8.4,18.8-1.9
		c4.6,4.8,7.2,10.8,9.6,16.8c0.9,2.3,1.7,4.6,2,7.2c-1.9-3.9-3.6-7.9-5.7-11.8c-1.4-2.7-2.9-5.5-4.9-7.8c-4.9-5.6-12.9-5.6-17.4,0.4
		c-2.6,3.4-4.5,7.6-5.7,11.7c-4.1,14-4,28.4-4,42.8c0,2.5,0.2,5,0.2,7.5c0,0.7-0.2,1.4-0.4,2C34.6,144.9,34.4,144.9,34.1,144.9z"/>
	<path d="M54.6,29.4c2.8,1.8,3.6,4.2,2.1,7.2c-2.4,4.6-6.3,7.3-11.5,7.4c-4.6,0.1-8.2-2.1-10.1-6.2c-2.2-4.6-1.3-9.2,2.1-12.7
		c2.4-2.4,5.6-4,8.6-5.6c0.7-0.4,2.3,0.2,3.2,0.8c0.4,0.3,0.4,2.1-0.1,2.6c-0.7,0.7-2.1,1.3-3.1,1.2c-3.5-0.4-7.4,4.6-6.5,8.6
		c0.8,3.3,3.6,5.6,6.9,5.5c3.9-0.1,7.7-3.1,8.3-6.5C54.5,30.9,54.5,30.2,54.6,29.4z"/>
	<path d="M145.2,160.6c-1.8-0.8-3.2-1.8-4.6-2c-1-0.1-2.1,1-3.1,1.6c0.6,0.9,1.1,2.1,2,2.6c1.4,0.9,3.2,1.2,4.7,2
		c3.2,1.6,4.6,4.2,4,7.3c-0.6,3.2-3.5,5.4-7.3,5.6c-3.7,0.2-7-1.6-7.7-4.4c-0.4-1.6,0.1-3.3,0.2-5c0.3,0,0.6-0.1,1-0.1
		c0.3,0.7,0.4,1.6,0.9,2c1.4,1.1,2.9,2.6,4.5,2.8c1.3,0.2,2.8-1.2,4.2-1.9c-1-1.1-1.8-2.4-3-3.2c-1.5-1-3.4-1.3-4.8-2.3
		c-3.6-2.5-3.2-8,0.7-9.9c3.1-1.5,6.3-1.2,9.1,0.7C148.2,158.1,146.1,159.4,145.2,160.6z"/>
	<path d="M1.5,168c1,3.3,2.7,5.7,6.4,5.1c1.1-0.2,2-1.3,3.1-1.9c-0.7-1-1.2-2.3-2.1-2.9c-1.5-0.9-3.3-1.3-4.9-2.1
		c-2.6-1.4-3.7-3.6-3.1-6.5c0.6-2.9,2.6-4.5,5.5-4.7c1.7-0.1,3.4,0,5,0.6c3.5,1.1,3.7,2.5,1,5c-1.6-0.7-3.1-1.6-4.7-1.9
		c-0.9-0.1-1.9,1-2.9,1.5c0.6,0.9,1,2.2,1.8,2.7c1.4,0.9,3.1,1.2,4.7,2c3.3,1.6,4.7,4.2,4.1,7.2c-0.6,3.1-3.2,5.3-6.9,5.7
		c-3.5,0.4-7-1.3-8-4C-0.3,171.8-0.3,169.9,1.5,168z"/>
	<path d="M156,24c1.7-3.1,3.3-5.9,4.8-8.8c0.8-1.6,1.1-3.4-1-4.3c-2-0.9-3.8-0.2-4.6,1.5c-1.2,2.7-1.8,5.6-2.7,8.5
		c-0.1,0.5-0.2,1-0.3,1.4c-4.5,0-5.2-0.7-4-4.8c1.1-3.7,2.3-7.4,3.8-11c0.4-0.8,2.2-1.4,3.3-1.4c1.4,0,3.3,0.3,2.8,2.8
		c0.6,0,1.2,0.1,1.8,0.1c5.4,0.3,7.5,3.5,5.5,8.5c-0.7,1.9-1.6,3.6-2.5,5.4C160.7,26.4,160.4,26.5,156,24z"/>
	<path d="M137.7,2c-0.9,3.2-1.8,6.1-2.4,9.1c-0.4,1.9-0.4,4.1,2,4.7c2.5,0.6,3.7-1.4,4.1-3.4c0.7-3.1,0.9-6.3,1.3-9.4
		c4.8,0,5.7,0.8,4.7,5.4c-0.7,3.3-1.7,6.6-2.8,9.8c-0.8,2.4-2.8,2.7-4.7,1.4c-0.7-0.5-1.8-0.9-2.6-0.8c-3.9,0.7-6.4-0.9-6.5-4.9
		c-0.1-2.8,0.2-5.6,0.7-8.3C132.3,0.8,133.1,0.4,137.7,2z"/>
	<path d="M63.8,31.7c-4.9-0.1-9.1-4.5-9-9.3c0.1-4.6,4.9-8.8,9.8-8.6c4.5,0.2,8.2,4.4,8.1,9.4C72.7,28,68.8,31.7,63.8,31.7z
		 M63.4,17.2c-2.3,0-4.5,2.1-4.6,4.3c-0.1,2.6,2.6,5.7,5,5.8c2.3,0.1,4.4-1.9,4.4-4.2C68.3,20.1,65.9,17.2,63.4,17.2z"/>
	<path d="M122.4,177.5c-4.1-0.7-8.4,1.6-10.9-2.6c-2.2-3.7-2-7.7,0.2-11.4c1.4-2.4,3.3-4.4,6.9-2.9c-0.2-2.1-0.3-3.8-0.5-5.5
		c3.8-0.7,4.2-0.6,4.3,2.8C122.6,164.2,122.4,170.6,122.4,177.5z M119.2,167.9c-0.1-1,0-2-0.3-3c-0.3-0.9-0.8-2.2-1.4-2.2
		c-0.8-0.1-2.2,0.7-2.4,1.3c-0.6,2.2-1.1,4.6-1,6.8c0,0.9,1.8,1.7,2.7,2.6c0.7-1,1.6-1.8,2.1-2.9
		C119.4,169.8,119.2,168.8,119.2,167.9z"/>
	<path d="M204,36c-4.4,6.7-16.7,7.9-23.2,2.2c0.8-1,1.6-2.1,2.3-3.1c1.9,1,3.5,1.8,5.9,3c-1-5.1-1.7-9.6,2.2-13.5
		c1.4,1.1,2.8,2.1,3.6,2.7c-0.8,3.1-1.6,5.6-1.9,8.2c-0.2,1.8,1.2,2.5,2.8,1.5c1.8-1.2,3.3-2.7,5.3-4.3
		C201.8,33.6,202.9,34.8,204,36z"/>
	<path d="M154,161c6.1-1.8,7.8-0.6,8.1,5.5c0.1,2.5,0,5-0.2,7.5c-0.3,3.6-0.4,3.7-4.2,3.1c0.3-3.6,0.7-7.3,0.7-10.9c0-1-1.1-2-1.7-3
		c-0.8,1-2.3,1.9-2.4,2.9c-0.3,3.6-0.1,7.2-0.1,11.1c-0.9,0-2.1,0.1-3.8,0.2c0-3.5,0-6.8,0-10.2c0-3.1,0.2-6.2,0.3-9.3
		c0.1-2.5,1.1-4,4.3-3.1C154.7,156.7,154.4,158.7,154,161z"/>
	<path d="M24.3,176.8c-3.7,1.9-5.9,0.9-6.4-3.8c-0.4-3.5-0.1-7.2,0.1-10.7c0.2-2.9,2.4-1.9,3.8-1.8c-0.2,3.5-0.7,6.9-0.6,10.2
		c0,1.2,1.4,2.3,2.1,3.5c0.9-1.1,2.5-2.2,2.6-3.4c0.4-3.3,0.1-6.7,0.1-10.2c3-0.7,3.5-0.4,3.6,2.9c0.2,3.8,0.1,7.6-0.1,11.4
		c0,0.9-0.7,2.3-1.4,2.7C27.4,177.9,26.2,177.2,24.3,176.8z"/>
	<path d="M206.9,171.1c0.5,3.3-0.6,5.3-3.3,6.3c-2.8,1-5.8,0.1-7.5-2.2c-2.5-3.5-1.9-10.4,1.2-13.3c1.9-1.8,4.3-2.6,6.6-1.4
		c1.4,0.7,2.9,2.5,3,3.9c0.1,1.4-1.1,3.3-2.3,4.3c-1.2,1-3.1,1.2-4.6,2c-0.5,0.3-1.2,1-1.2,1.4c0,0.5,0.7,1.2,1.2,1.5
		C202.1,174.8,204.4,174,206.9,171.1z M198.6,168.3c2.1-1.5,3.6-2.5,5.1-3.6c-0.8-0.5-1.6-1.6-2.3-1.5
		C199.3,163.5,198.2,164.9,198.6,168.3z"/>
	<path d="M108.5,170.9c0.5,3.5-0.6,5.5-3.3,6.5c-2.9,1-5.8,0.1-7.5-2.2c-2.5-3.5-1.9-10.4,1.3-13.3c2-1.9,4.5-2.6,6.8-1.2
		c1.3,0.7,2.6,2.4,2.7,3.8c0.1,1.4-1,3.2-2.1,4.1c-1.2,1-3.1,1.3-4.6,2c-0.6,0.3-1.5,1.1-1.4,1.6c0.1,0.6,0.9,1.3,1.5,1.6
		C104.6,174.8,106.7,173.7,108.5,170.9z M100.1,168.3c2.1-1.4,3.7-2.5,5.2-3.5c-0.7-0.5-1.5-1.6-2.2-1.5
		C100.9,163.4,99.9,164.9,100.1,168.3z"/>
	<path d="M73.1,169c0,5.1-2.9,8.8-6.7,8.8c-3.8,0-6.6-3.7-6.7-8.8c0-5.4,2.7-9,6.6-9C70.4,160,73.1,163.6,73.1,169z M69.8,168.1
		c-0.1-0.8,0-1.8-0.4-2.4c-0.8-1-2-2.5-2.9-2.4c-1.1,0.1-2.5,1.5-3,2.6c-1,2.3-0.8,4.8,1.3,6.6c0.7,0.6,2.2,0.4,3.3,0.1
		c0.6-0.2,1.1-1.1,1.3-1.9C69.6,169.9,69.6,169,69.8,168.1z"/>
	<path d="M176.5,172.3c0.4,2-0.7,3.8-3.2,4.9c-2.7,1.2-5.9,0.3-7.6-1.9c-2.7-3.5-2-10.9,1.3-13.8c2.3-2,5.8-2.2,8-0.4
		c2.4,2,2.1,5.7-0.7,7.3c-1.4,0.8-3,1.1-4.4,1.8c-0.7,0.4-1.2,1.2-1.8,1.8c0.6,0.6,1.4,1.7,1.9,1.6
		C172.2,173.5,174.3,172.8,176.5,172.3z M167.4,166.8c0.2,0.2,0.5,0.5,0.7,0.7c1-0.3,2.1-0.5,3.1-0.9c0.7-0.4,1.4-1,1.9-1.7
		c0.1-0.1-0.5-1.2-0.9-1.3c-0.9-0.2-2.1-0.3-2.8,0.2C168.6,164.5,168.1,165.7,167.4,166.8z"/>
	<path d="M50.1,171.8c0.1,2.1,0.2,3.6,0.3,5c-3.6,1-4.1,0.7-4.1-2.9c0-3.6,0-7.2,0-10.8c0-2.3,1-3.6,3.5-3.3c0.5,0,1,0,1.5,0
		c2.8,0.1,5.8,0.3,7.1,3.4c1.3,3.1,0,5.9-2,8.2C54.6,173.4,52.8,175.1,50.1,171.8z M48.9,167.1c1.1,1.6,1.6,3,2.4,3.3
		c1.6,0.5,4-2,4-4c0-1.9-1.2-3.4-2.9-3C51.2,163.7,50.3,165.6,48.9,167.1z"/>
	<path d="M36.1,172.5c0.1,0.8,0.2,1.6,0.3,2.3c0.1,0.7,0.1,1.4,0.2,2.1c-3.9,0.9-4.1,0.7-4.2-3.2c0-3.4,0.1-6.8,0-10.2
		c-0.1-2.7,1.1-3.9,3.8-3.6c0.3,0,0.6,0,0.9,0c2.9,0.1,6,0.2,7.4,3.4c1.4,3.4-0.2,6.2-2.5,8.7C40.2,173.8,38.4,175,36.1,172.5z
		 M35.7,168.1c0.4,0.5,0.9,1.9,1.7,2.2c1.7,0.5,3.9-2,4-4c0-2-1.1-3.1-2.9-3.1C35.6,163.2,36.3,165.7,35.7,168.1z"/>
	<path d="M220.9,170.9c1.2,1,2.4,2.3,3.8,2.9c0.8,0.3,2.2-0.7,3.3-1.1c-0.6-0.8-1-1.7-1.8-2.4c-0.6-0.5-1.4-0.6-2.2-1
		c-2.3-1.1-3.6-2.8-3-5.5c0.6-2.6,2.6-3.7,5.1-3.8c0.9-0.1,1.8,0.1,2.6,0.4c3.3,1.1,3.5,2.2,0.7,4.7c-1.4-1.5-3-2.9-5.8-0.6
		c1.7,1.1,3.1,2,4.6,2.8c3.4,1.9,4.5,4.2,3.3,7c-1.2,2.8-4.7,4.1-7.9,3C220.7,176.3,219.8,174.2,220.9,170.9z"/>
	<path d="M178.5,34.7c-1.1-0.2-2-0.3-2.8-0.5c-1.9-0.3-2.4-1.4-1.6-3c1.4-2.7,2.9-5.4,4.5-8.1c1.1-1.7,2.7-3.4-1.2-4.1
		c0.5-0.8,0.8-1.4,1.2-1.7c1.7-1.3,3.6,1.9,5.7-0.4c0.7-0.7,3.5,0.7,6.1,1.3c-1.7,1.3-2.5,1.9-3.4,2.6c0.2,1.5,4.1,2.2,1,4.4
		c-4.1-2-4.1-2-6.7,2.2c-0.7,1.1-1.3,2.3-1.8,3.4C179.1,32,178.9,33.2,178.5,34.7z"/>
	<path d="M45.9,99.5c5.7-0.5,11.4-1,17-1.5c0,8.5,0,16.7,0,24.8c-0.2,0-0.4,0-0.7,0c-0.5-7.3-1-14.7-1.5-22.2
		c-4.1,0.5-8.2,0.9-12,1.3c0.9,8.3,1.7,16.3,2.5,24.3c-0.2,0-0.3,0-0.5,0C49.2,117.4,47.6,108.7,45.9,99.5z"/>
	<path d="M188.4,99.8c-1.6,9-3.2,17.7-4.8,26.4c-0.2,0-0.3,0-0.5,0c0.8-7.9,1.6-15.7,2.5-24c-3.7-0.4-7.7-0.9-12-1.3
		c-0.5,7.2-0.9,14.2-1.4,21.2c-0.2,0-0.4,0-0.6,0c0-7.8,0-15.6,0-23.8C177,98.7,182.8,99.3,188.4,99.8z"/>
	<path d="M198,137.6c-0.5,3-1.6,3.6-3.7,3c-9.9-2.9-20.1-4.1-30.4-3.7c-2.1,0.1-3-0.4-2.1-3.4C173.7,134.9,185.8,136.2,198,137.6z"
		/>
	<path d="M72.8,133.7c0.7,2.3-0.1,2.9-2,2.8c-10.7-0.5-21.1,0.8-31.3,3.8c-2.3,0.7-2.5-0.7-3.2-2.4
		C48.4,135.2,60.5,134.1,72.8,133.7z"/>
	<path d="M75.3,160.1c1.3,0.3,2.3,0.6,3.4,0.8c0.6,0.1,1.3,0.2,1.8-0.1c1.4-0.9,2.8-1.4,3.9,0.2c1.2,1.7,0.6,3.2-1,4.3
		c-3.1-2.1-4.6-1.5-4.8,2.3c-0.1,3.1,0.3,6.3,0.5,9.6c-1.1,0-2.3,0-3.8,0C75.3,171.7,75.3,166.3,75.3,160.1z"/>
	<path d="M182.9,177.2c-1,0-2.1,0-3.6,0c-0.9-7.1-0.8-14.1,0.1-21.1c0.1-0.8,2.2-1.3,3.5-1.9C182.9,162.3,182.9,169.6,182.9,177.2z"
		/>
	<path d="M191.2,176.3c-0.8,0.4-1.9,0.9-3.9,1.8c-0.2-4-0.2-7.4-0.5-10.8c-0.1-1.5,1.6-4.1-1.9-4.2c-0.1,0-0.4-1.4-0.1-1.6
		c2-1.7,4.1-3.4,6.2-5c0.1-0.1,0.3,0.1,0.7,0.3c-0.2,1-0.4,2-0.5,2.7c0.9,1,1.7,1.7,2.4,2.4c-0.7,0.4-1.5,0.7-2,1.3
		c-0.6,0.7-1.2,1.7-1.2,2.5C190.5,169.1,190.9,172.4,191.2,176.3z"/>
	<path d="M209.3,160.1c1.5,0.3,2.6,0.6,3.7,0.8c0.6,0.1,1.3,0.2,1.8-0.1c1.5-1,3.2-1.5,4,0.4c0.5,1.1-0.1,2.7-0.2,4.5
		c-4.3-2.6-5.6-1.9-5.6,2.3c0,3,0.3,5.9,0.5,8.9c-3.8,0.7-4,0.6-4.1-3C209.2,169.5,209.3,165,209.3,160.1z"/>
	<path d="M93.5,156.1c-0.4,1.7-0.6,2.6-0.8,3.8c0.6,0.2,1.3,0.3,1.8,0.6c0.4,0.3,0.7,1,0.7,1.5c0,0.4-0.7,1.2-1,1.1
		c-2.2-0.2-2.3,1.4-2.2,2.7c0.2,3.3,0.5,6.7,0.9,10.5c-0.7,0.3-1.8,0.9-3.7,1.8c-0.2-3.6-0.3-6.7-0.7-9.8c-0.3-1.8,2-4.7-1.9-5.4
		c-0.1,0-0.2-1.5,0.1-1.9c1.1-1.3,2.3-2.6,3.6-3.7C91,156.8,92,156.7,93.5,156.1z"/>
	<path d="M175.4,14.7c-2.3,5-4.6,9.9-6.9,14.9c-4.6-1-5-1.6-2.9-6c1.2-2.5,2.4-5,3.7-7.5C171.4,11.9,171.9,11.8,175.4,14.7z"/>
	<path d="M121.8,62.5c0.1,2.6-1.9,4.7-4.3,4.8c-2.4,0.1-4.6-2.1-4.6-4.6c-0.1-2.5,2-4.7,4.4-4.8C119.8,57.9,121.8,59.9,121.8,62.5z
		 M116.7,65.5c0.4,0,0.8,0,1.2,0.1c0.7-1,1.9-2,1.9-3c0-0.9-1.3-2.3-2.2-2.4c-0.8-0.1-2.3,1.3-2.4,2.1
		C115,63.3,116.1,64.5,116.7,65.5z"/>
	<path d="M184.8,90.1c-2.1,1.5-3.3,3-4.5,3c-1,0-2.5-1.8-2.7-3.1c-0.4-1.9,1.1-3.4,3-3.1C181.8,87.1,182.9,88.6,184.8,90.1z"/>
	<path d="M54.6,86.1c0.8,1.3,2.2,2.6,2.1,3.8c-0.1,1.1-1.7,2.8-2.9,3c-1.9,0.3-3.2-1.4-2.8-3.3c0.2-1.3,1.4-2.4,2.1-3.5
		C53.6,86.1,54.1,86.1,54.6,86.1z"/>
	<path d="M178.7,11.5c-0.7,0.3-1.7,1.1-2.1,0.8c-1.3-0.7-2.4-1.7-3.6-2.6c0.7-0.5,1.6-1.6,2.1-1.4c1.4,0.5,2.5,1.4,3.8,2.2
		C178.8,10.9,178.8,11.2,178.7,11.5z"/>
	<path class="st0" d="M63.4,17.2c2.5,0,4.9,2.9,4.9,5.8c0,2.4-2.1,4.3-4.4,4.2c-2.4-0.1-5.1-3.2-5-5.8
		C58.9,19.3,61.2,17.2,63.4,17.2z"/>
	<path class="st0" d="M119.2,167.9c-0.1,0.9,0.1,1.9-0.2,2.7c-0.5,1.1-1.4,1.9-2.1,2.9c-1-0.9-2.7-1.7-2.7-2.6
		c-0.1-2.3,0.4-4.6,1-6.8c0.2-0.7,1.6-1.4,2.4-1.3c0.6,0.1,1.1,1.4,1.4,2.2C119.2,165.9,119.2,166.9,119.2,167.9z"/>
	<path class="st0" d="M198.6,168.3c-0.3-3.4,0.7-4.9,2.9-5.1c0.7-0.1,1.5,1,2.3,1.5C202.2,165.8,200.7,166.9,198.6,168.3z"/>
	<path class="st0" d="M100.1,168.3c-0.3-3.4,0.8-4.9,3-5c0.7-0.1,1.5,1,2.2,1.5C103.8,165.8,102.3,166.9,100.1,168.3z"/>
	<path class="st0" d="M69.8,168.1c-0.1,0.8-0.1,1.8-0.5,2.6c-0.3,0.7-0.8,1.7-1.3,1.9c-1,0.3-2.6,0.5-3.3-0.1
		c-2-1.7-2.2-4.3-1.3-6.6c0.5-1.2,1.9-2.5,3-2.6c0.9-0.1,2.1,1.4,2.9,2.4C69.7,166.3,69.6,167.3,69.8,168.1z"/>
	<path class="st0" d="M167.4,166.8c0.6-1,1.1-2.3,2-3c0.6-0.5,1.8-0.3,2.8-0.2c0.4,0.1,1,1.2,0.9,1.3c-0.5,0.7-1.2,1.3-1.9,1.7
		c-0.9,0.5-2,0.6-3.1,0.9C167.9,167.3,167.7,167,167.4,166.8z"/>
	<path class="st0" d="M48.9,167.1c1.4-1.5,2.3-3.4,3.6-3.7c1.6-0.5,2.9,1,2.9,3c0,2-2.4,4.6-4,4C50.5,170,50,168.6,48.9,167.1z"/>
	<path class="st0" d="M35.7,168.1c0.6-2.4-0.1-4.9,2.8-4.9c1.8,0,3,1.1,2.9,3.1c0,2.1-2.2,4.5-4,4C36.7,170.1,36.1,168.7,35.7,168.1
		z"/>
	<path class="st0" d="M116.7,65.5c-0.6-1.1-1.6-2.2-1.5-3.2c0.1-0.8,1.6-2.2,2.4-2.1c0.8,0.1,2.2,1.5,2.2,2.4c0,1-1.2,2-1.9,3
		C117.5,65.6,117.1,65.5,116.7,65.5z"/>
</g>
</svg>
