<?xml version="1.0" encoding="utf-8"?>
<!-- Generator: Adobe Illustrator 25.4.1, SVG Export Plug-In . SVG Version: 6.00 Build 0)  -->
<svg version="1.1" id="Layer_1" xmlns="http://www.w3.org/2000/svg" xmlns:xlink="http://www.w3.org/1999/xlink" x="0px" y="0px"
	 viewBox="0 0 1916.4 1777.4" style="enable-background:new 0 0 1916.4 1777.4;" xml:space="preserve">
<style type="text/css">
	.st0{display:none;fill:url(#SVGID_1_);stroke:#231F20;stroke-miterlimit:10;}
	.st1{fill:#2D2D2D;}
	.st2{fill:#F2F7F9;}
	.st3{fill:#F2F8F9;}
	.st4{fill:none;}
	.st5{font-family:'Montserrat-Regular';}
	.st6{font-size:129px;}
	.st7{letter-spacing:9;}
</style>
<ellipse transform="matrix(0.7071 -0.7071 0.7071 0.7071 -347.7565 937.8311)" class="st1" cx="958.2" cy="888.7" rx="590.8" ry="590.8"/>
<g>
	<path class="st2" d="M1267.7,1074.1H802.4c-10.3,0-15.6-5.2-15.6-15.5V934.1c0-10.4-5.2-15.5-15.5-15.5H662.6
		c-10.3,0-15.5-5.2-15.5-15.6V742.6v-87.9c7.6-5,12.6-13.7,12.6-23.4c0-15.6-12.6-28.1-28.1-28.1c-15.6,0-28.2,12.6-28.2,28.1
		c0,9.8,5,18.4,12.6,23.4v119v160.4c0,10.4,5.2,15.5,15.6,15.5h108.7c10.3,0,15.5,5.2,15.5,15.5v124.5c0,10.4,5.2,15.6,15.5,15.6
		h465.2c10.4,0,15.6,5.2,15.6,15.6v80.7c0,10.4-5.2,15.5-15.6,15.5h-574c-10.3,0-15.5-5.2-15.5-15.5v-104v-49.2v-23.8
		c0-10.4,10.8-15.6,21.1-15.6l0,0c10.4,0,20.3,5.2,20.3,15.6v73.1l0.1-0.1v64.4c0,10.4,5.2,15.5,15.5,15.5h464
		c5.1,7.4,13.5,12.2,23.1,12.2c15.6,0,28.1-12.6,28.1-28.1c0-15.5-12.6-28.2-28.1-28.2c-9.9,0-18.7,5.2-23.7,13H735.2
		c-10.3,0-15.5-5.2-15.5-15.6V997.6c0-0.2-0.1-0.4-0.1-0.6v-3.6c0-10.4-5.2-15.6-15.5-15.6h-18.8h-32h-21.8
		c-10.4,0-15.6,5.2-15.6,15.6v54.9v18.1v166.2c0,10.4,5.2,15.6,15.6,15.6h636.1c10.4,0,15.6-5.2,15.6-15.6v-142.9
		C1283.2,1079.3,1278,1074.1,1267.7,1074.1z"/>
	<path class="st3" d="M1267.7,502H850.9h-71.8c-5-7.6-13.6-12.6-23.5-12.6c-15.6,0-28.1,12.6-28.1,28.2c0,15.5,12.6,28.1,28.1,28.1
		c9.8,0,18.4-5,23.5-12.6h2.4H882h354.6c10.4,0,15.6,5.2,15.6,15.6v79.7c0,10.4-5.2,15.5-15.6,15.5H771.3
		c-10.3,0-15.5,5.2-15.5,15.5v140.1c0,10.4,5.2,15.5,15.5,15.5h371.3c10.4,0,15.5,5.2,15.5,15.5V903c0,10.4-5.2,15.6-15.5,15.6
		H873.4c-4.9-8.1-13.8-13.5-24-13.5c-15.5,0-28.1,12.6-28.1,28.1c0,15.5,12.6,28.1,28.1,28.1c9.4,0,17.7-4.6,22.8-11.7h301.4
		c10.4,0,15.6-5.2,15.6-15.5V799.5c0-10.4-5.2-15.6-15.6-15.6H802.4c-10.3,0-15.6-5.2-15.6-15.5v-77.9c0-10.4,5.2-15.6,15.6-15.6
		h465.2c10.4,0,15.6-5.2,15.6-15.5V517.5C1283.2,507.2,1278,502,1267.7,502z"/>
	<path class="st3" d="M701.6,881.5h373.5c5,7.5,13.6,12.4,23.3,12.4c15.5,0,28.2-12.6,28.2-28.1c0-15.5-12.6-28.2-28.2-28.2
		c-9.8,0-18.5,5.1-23.5,12.7H732.8c-10.4,0-15.5-5.2-15.5-15.6V618.6c0-10.4,5.2-15.5,15.5-15.5H1168c5.1,7.4,13.6,12.3,23.3,12.3
		c15.6,0,28.1-12.6,28.1-28.1c0-15.5-12.6-28.1-28.1-28.1c-9.9,0-18.6,5.1-23.6,12.8H701.6c-10.4,0-15.5,5.2-15.5,15.5V866
		C686.1,876.3,691.3,881.5,701.6,881.5z"/>
</g>
<rect x="361" y="1530.5" class="st4" width="1203" height="170.8"/>
<text transform="matrix(1 0 0 1 361.0175 1626.2645)" class="st5 st6 st7">openeugene.org</text>
</svg>
